<svg width="2126" height="586" viewBox="0 0 2126 586" fill="none" xmlns="http://www.w3.org/2000/svg">
<path fill-rule="evenodd" clip-rule="evenodd" d="M1167.81 0.498067C1140.86 3.84807 1118.24 21.4791 1109.27 46.1121C1104.51 59.1981 1104.37 77.3101 1108.94 89.5341C1120.06 119.239 1152.37 138.335 1184.73 134.326C1202.1 132.173 1213.98 126.348 1226.48 113.854C1235.41 104.919 1239.87 98.0341 1243.73 87.1891C1245.99 80.8521 1246.35 78.2211 1246.37 67.8541C1246.39 57.2831 1246.06 54.9021 1243.61 47.8541C1239.42 35.8071 1235.53 29.7141 1226.02 20.3231C1219.61 13.9931 1215.46 10.8461 1209.93 8.12507C1196.46 1.49707 1181.53 -1.20693 1167.81 0.498067ZM256.978 43.0341C201.544 45.4641 168.431 57.6571 138.172 86.7821C109.464 114.413 90.8651 148.864 69.3001 214.354C47.5891 280.286 20.2761 412.924 3.5071 533.854C-0.215899 560.7 -0.601897 565.055 0.628103 566.354C1.8561 567.651 10.9361 567.898 67.7631 568.179C103.906 568.357 135.865 568.209 138.783 567.85C143.068 567.322 144.255 566.757 144.957 564.91C145.435 563.652 148.996 542.425 152.869 517.738C156.743 493.052 161.502 462.729 163.444 450.354C175.984 370.476 194.987 279.305 206.043 245.971C216.89 213.267 230.524 193.711 248.88 184.523C262.415 177.749 280.111 176.851 291.496 182.363C297.915 185.47 304.375 193.116 306.916 200.614C313.041 218.684 309.346 239.02 297.567 252.066C285.495 265.437 259.371 277.187 223.71 285.286C207.386 288.994 205.423 289.79 204.126 293.234C201.204 300.987 202.251 347.825 205.997 377.002C218.19 471.968 259.416 538.509 326.382 571.311C338.13 577.066 360.342 585.354 364.017 585.354C365.305 585.354 366.438 583.741 367.906 579.816C369.046 576.771 369.978 573.867 369.978 573.362C369.978 572.858 377.395 543.635 386.46 508.422C395.526 473.209 403.039 443.138 403.156 441.598C403.461 437.594 402.882 437.009 393.614 431.957C378.324 423.622 366.256 413.592 355.846 400.566C348.515 391.393 341.978 380.275 341.978 376.98C341.978 374.1 345.553 371.042 353.672 366.977C362.576 362.52 385.058 346.885 394.618 338.502C423.906 312.82 442.401 279.979 449.613 240.854C451.933 228.267 452.243 187.962 450.129 173.854C442.634 123.837 422.748 90.8051 387.753 70.2461C374.072 62.2081 347.284 52.9181 324.978 48.4751C305.195 44.5351 276.006 42.1991 256.978 43.0341ZM1498.81 43.3771C1480 46.5501 1455.87 57.3851 1438.71 70.3521C1426.63 79.4861 1423.71 80.2721 1423.16 74.5371C1422.98 72.7121 1423.32 68.9721 1423.91 66.2261C1425.8 57.4191 1430.05 58.4261 1367.82 52.9281C1337.38 50.2401 1307.46 47.8311 1301.33 47.5751C1291.1 47.1481 1290.14 47.2631 1289.6 48.9821C1289.01 50.8321 1284.56 73.8691 1222.52 396.299C1205.12 486.745 1191.02 562.12 1191.18 563.799L1191.48 566.854L1257.77 567.111L1324.06 567.368L1326.37 565.052C1327.65 563.778 1329.19 560.513 1329.81 557.795C1330.42 555.077 1344.47 482.204 1361.02 395.854C1395.72 214.851 1395.9 213.966 1400.06 201.354C1404.43 188.123 1411.48 174.798 1417.09 169.163C1428.3 157.918 1446.07 159.557 1451.69 172.354C1455.1 180.121 1454.17 214.36 1449.87 239.295C1448.78 245.652 1441.62 282.804 1433.98 321.854C1400.37 493.465 1387.9 559.058 1388.18 562.773C1388.45 566.32 1388.82 566.826 1391.75 567.581C1396.87 568.899 1521.64 568.096 1523 566.736C1523.61 566.122 1527.92 545.422 1532.58 520.736C1537.24 496.051 1549.79 431.979 1560.48 378.354C1571.16 324.729 1581.48 271.498 1583.42 260.064C1592.04 209.147 1600.25 185.082 1614.18 169.876C1621.4 161.993 1625.34 160.402 1633.17 162.209C1640.33 163.86 1644.54 166.748 1647.73 172.191C1650.18 176.361 1650.51 178.018 1650.83 187.855C1651.2 199.468 1649.28 219.626 1645.87 239.854C1643.89 251.627 1621.07 370.887 1596.43 498.216C1589.58 533.615 1583.98 563.379 1583.98 564.359C1583.98 565.338 1584.69 566.413 1585.56 566.747C1586.43 567.081 1616.79 567.354 1653.03 567.354C1717.38 567.354 1718.93 567.309 1719.95 565.399C1720.53 564.323 1724.35 544.861 1728.45 522.149C1740.42 455.809 1750.39 405.97 1768.4 322.354C1788.89 227.273 1796.71 166.493 1793.03 130.854C1787.7 79.3581 1762.95 53.2111 1710.98 44.2031C1706.79 43.4771 1695.97 42.9081 1686.48 42.9151C1666.79 42.9291 1657.91 44.3621 1639.63 50.4721C1625.96 55.0391 1616.34 59.6871 1600.61 69.3161C1589.84 75.9081 1588.06 76.7321 1585.15 76.4721C1584.41 76.4071 1579.88 72.5721 1575.08 67.9491C1570.27 63.3271 1563.51 57.7161 1560.05 55.4811C1552.3 50.4671 1540.01 45.6461 1530.21 43.7711C1522.34 42.2661 1506.56 42.0691 1498.81 43.3771ZM1097.15 147.973C1096.5 149.558 1088.54 192.479 1079.45 243.354C1037.17 480.101 1024.94 548.423 1023.56 555.633C1022.74 559.912 1022.31 564.043 1022.6 564.813C1022.9 565.584 1024.52 566.696 1026.21 567.284C1029.76 568.522 1062.35 568.671 1115.74 567.693C1151.22 567.044 1151.84 566.997 1152.41 564.943C1152.73 563.794 1166.95 490.179 1184.02 401.354C1201.09 312.529 1218.41 222.737 1222.52 201.817C1226.62 180.897 1229.98 162.614 1229.98 161.19C1229.98 157.89 1228.37 156.585 1223.43 155.872C1220.23 155.411 1133.09 147.869 1105.4 145.657C1098.34 145.093 1098.33 145.096 1097.15 147.973ZM1049.48 147.929C970.63 160.028 897.225 193.303 848.978 238.817C824.906 261.525 809.495 282.25 795.41 310.854C778.917 344.347 770.957 379.335 770.998 418.155C771.024 443.947 773.513 461.486 780.049 481.944C792.135 519.774 816.186 548.917 848.845 565.306C865.896 573.862 892.269 579.95 916.978 581.033C941.961 582.129 980.183 576.577 982.924 571.455C983.752 569.908 1012.98 419.935 1012.98 417.234C1012.98 414.899 1008.19 417.053 996.867 424.484C982.69 433.787 965.454 442.425 955.978 444.976C947.887 447.154 927.826 447.455 920.266 445.512C913.033 443.653 906.76 437.953 903.822 430.572C901.898 425.735 901.558 423.082 901.617 413.354C901.677 403.684 902.123 400.501 904.425 393.354C909.746 376.828 921.008 359.405 935.636 345.07C957.586 323.558 981.159 311.172 1022.6 299.374C1031.33 296.887 1034.26 294.687 1035.84 289.435C1037.15 285.036 1061.56 158.893 1062.6 151.104C1063.34 145.541 1064 145.7 1049.48 147.929ZM631.926 161.33C584.4 165.936 543.877 185.716 507.228 222.195C473.67 255.598 451.206 296.326 438.057 347.6C421.78 411.076 425.149 468.943 447.509 509.963C478.255 566.367 549.06 591.862 628.978 575.303C645.704 571.838 659.242 567.476 679.478 559.033C687.378 555.737 710.551 543.754 718.884 538.656C728.21 532.95 731.978 529.593 731.978 526.991C731.978 525.103 722.034 505.871 693.129 451.854C683.894 434.596 679.747 427.773 678.366 427.565C677.309 427.406 671.762 430.284 666.038 433.96C641.545 449.691 620.286 455.943 593.978 455.151C581.712 454.781 580.001 454.498 575.265 452.051C565.209 446.856 556.978 437.668 556.978 431.638C556.978 423.071 560.319 421.686 583.032 420.842C627.692 419.181 674.29 410.327 704.945 397.678C737.151 384.388 759.616 360.24 769.902 327.854C774.232 314.218 775.43 305.51 775.404 287.854C775.38 270.824 774.344 262.573 770.32 247.354C758.96 204.394 723.556 173.191 675.043 163.383C663.779 161.105 643.971 160.162 631.926 161.33ZM1979.89 161.399C1950.86 163.986 1916.75 175.945 1892.98 191.868C1835.98 230.052 1798.86 288.906 1783.57 365.354C1779.28 386.829 1777.98 400.263 1777.98 423.184C1777.98 446.235 1779.29 458.679 1783.48 475.462C1796.79 528.705 1835.62 564.382 1893.98 576.984C1908.35 580.089 1933.73 581.178 1951.48 579.453C1988.65 575.84 2028.58 562.342 2063.85 541.469C2079.39 532.278 2082.32 529.798 2081.64 526.438C2081.13 523.946 2032.1 431.407 2029.84 428.69C2027.91 426.359 2025.58 427.191 2014.98 433.997C1991.49 449.084 1971.02 455.47 1946.15 455.466C1929.35 455.464 1921.17 452.653 1913.38 444.213C1908.26 438.668 1906.98 436.125 1906.98 431.555C1906.98 428.128 1907.57 426.609 1909.75 424.424C1912.53 421.651 1912.55 421.647 1931 420.943C1963.56 419.7 1991.22 415.882 2018.32 408.889C2065.16 396.808 2089.72 381.742 2107.71 354.072C2126.22 325.589 2130.65 284.491 2119.38 245.624C2102.94 188.884 2047.45 155.377 1979.89 161.399ZM659.155 278.508C672.17 285.688 670.536 303.199 655.472 317.97C644.037 329.182 624.047 337.233 598.551 340.895C592.461 341.77 584.553 342.344 580.978 342.17C574.568 341.858 574.474 341.813 574.187 338.854C573.433 331.073 598.236 299.353 614.425 287.393C621.971 281.819 628.658 278.989 641.478 275.944C645.912 274.891 654.983 276.207 659.155 278.508ZM2004.3 276.426C2008.87 277.695 2015.26 283.212 2016.99 287.376C2018.67 291.449 2017.8 299.011 2014.96 304.956C2011.8 311.554 1999.99 323.189 1991.98 327.587C1977.86 335.341 1955.7 341.026 1935.58 342.054L1923.67 342.662L1924.36 338.258C1925.69 329.742 1946.62 301.642 1959.61 290.925C1974.68 278.499 1991.78 272.95 2004.3 276.426Z" fill="#338FE6"/>
</svg>
